<svg id="Layer_1" data-name="Layer 1" xmlns="http://www.w3.org/2000/svg" viewBox="-50 -10 400.73 199.82">
    <defs>
        <style>.cls-1{fill:#232f3e;}.cls-2{fill:#f90;fill-rule:evenodd;}</style>
    </defs>
    <path class="cls-1"
          d="M286.49,241.71a28.37,28.37,0,0,0,1.13,8.93,47,47,0,0,0,3.24,7.18,4.57,4.57,0,0,1,.7,2.27,3.85,3.85,0,0,1-1.92,3l-6.3,4.19a5,5,0,0,1-2.63.88,4.18,4.18,0,0,1-3-1.4,22.69,22.69,0,0,1-3.59-4.64q-1.48-2.53-3.06-5.86-11.73,13.83-29.4,13.83-12.6,0-19.95-7.18t-7.35-19.25q0-12.76,9.1-20.56t24.5-7.79a74.07,74.07,0,0,1,10.58.79q5.52.78,11.47,2.18v-7.34q0-11.38-4.73-16T249,190.27a46.2,46.2,0,0,0-10.77,1.31A76.41,76.41,0,0,0,227.51,195a26.13,26.13,0,0,1-3.5,1.31,7,7,0,0,1-1.57.27q-2.1,0-2.1-3.15v-4.9a6.49,6.49,0,0,1,.7-3.5,7.16,7.16,0,0,1,2.8-2.1,65.1,65.1,0,0,1,12.6-4.55A60.94,60.94,0,0,1,252,176.44q17.85,0,26.16,8.14t8.32,24.59Zm-40.6,15.23a32.08,32.08,0,0,0,10.32-1.84,21.7,21.7,0,0,0,9.45-6.39,15.74,15.74,0,0,0,3.41-6.38,33.85,33.85,0,0,0,1-8.66v-4.21a86.31,86.31,0,0,0-9.19-1.66,75.75,75.75,0,0,0-9.36-.61q-10,0-14.88,4t-4.9,11.55q0,7,3.68,10.59T245.89,256.94Zm80.32,10.85a6.24,6.24,0,0,1-3.85-1,7.76,7.76,0,0,1-2.1-3.94l-23.45-77.35a18,18,0,0,1-.87-4,2.16,2.16,0,0,1,2.45-2.45h9.8a6.18,6.18,0,0,1,3.93,1,8.37,8.37,0,0,1,2,3.93l16.8,66.16L346.51,184c.47-2,1.11-3.29,1.93-3.93a6.56,6.56,0,0,1,4-1h8.05a6.61,6.61,0,0,1,4,1q1.21,1,1.92,3.93l15.75,67,17.33-67a8.28,8.28,0,0,1,2-3.93,6.19,6.19,0,0,1,3.94-1h9.27a2.16,2.16,0,0,1,2.45,2.45,8.6,8.6,0,0,1-.17,1.57,22.35,22.35,0,0,1-.7,2.45l-24.15,77.35a7.91,7.91,0,0,1-2.1,3.94,6.24,6.24,0,0,1-3.85,1h-8.58a6.13,6.13,0,0,1-4-1.05,7.58,7.58,0,0,1-1.93-4l-15.57-64.39-15.4,64.39a7.58,7.58,0,0,1-1.93,4,6.17,6.17,0,0,1-4,1.05Zm128.45,2.63a68.16,68.16,0,0,1-15.4-1.75,44.76,44.76,0,0,1-11.55-4A5.8,5.8,0,0,1,424,259V254c0-2.09.75-3.14,2.27-3.14a5.24,5.24,0,0,1,1.84.35c.64.23,1.49.58,2.54,1a52.24,52.24,0,0,0,11,3.5,58.64,58.64,0,0,0,11.9,1.23q9.45,0,14.61-3.32a10.62,10.62,0,0,0,5.17-9.45,9.65,9.65,0,0,0-2.72-7q-2.71-2.8-10.06-5.25l-14.52-4.55q-11-3.51-16-10.16a23.69,23.69,0,0,1-5-14.52,22.22,22.22,0,0,1,2.71-11.11,27,27,0,0,1,7.17-8.23,31.87,31.87,0,0,1,10.42-5.16,44.61,44.61,0,0,1,12.6-1.75,53.16,53.16,0,0,1,6.73.44q3.42.44,6.48,1.14c2,.46,3.94,1,5.69,1.57a26.29,26.29,0,0,1,4.2,1.75,9.56,9.56,0,0,1,3,2.45,5.65,5.65,0,0,1,.88,3.33v4.72q0,3.15-2.28,3.15a10.68,10.68,0,0,1-3.85-1.22,46.44,46.44,0,0,0-19.25-3.85q-8.58,0-13.3,2.79t-4.72,8.93a9.51,9.51,0,0,0,3,7.09q3,2.88,11,5.51l14.17,4.55q10.85,3.51,15.49,9.63a22.58,22.58,0,0,1,4.64,14,25.29,25.29,0,0,1-2.63,11.63,26.43,26.43,0,0,1-7.26,8.84,32.63,32.63,0,0,1-11.11,5.6A49.76,49.76,0,0,1,454.66,270.42Z"
          transform="translate(-201.74 -176.44)"/>
    <path class="cls-2"
          d="M473.58,319.05c-32.93,24.29-80.66,37.21-121.77,37.21-57.6,0-109.48-21.29-148.73-56.74-3.09-2.78-.34-6.58,3.37-4.43,42.35,24.65,94.73,39.49,148.82,39.49a296,296,0,0,0,113.52-23.23C474.35,309,479,315,473.58,319.05Z"
          transform="translate(-201.74 -176.44)"/>
    <path class="cls-2"
          d="M487.28,303.4c-4.22-5.39-27.84-2.55-38.45-1.28-3.22.39-3.72-2.42-.82-4.46,18.85-13.24,49.73-9.41,53.32-5s-.95,35.43-18.61,50.2c-2.72,2.28-5.31,1.06-4.1-1.94C482.59,331,491.49,308.8,487.28,303.4Z"
          transform="translate(-201.74 -176.44)"/>
</svg>